<svg width="192" height="192" viewBox="0 0 192 192" xmlns="http://www.w3.org/2000/svg">
  <rect width="192" height="192" rx="42" fill="#EA6C1E"/>
  <clipPath id="awn"><rect x="26" y="74" width="140" height="32" rx="3"/></clipPath>
  <rect x="26" y="74" width="140" height="32" rx="3" fill="#c0392b"/>
  <rect x="26" y="74" width="18" height="32" fill="#e74c3c" clip-path="url(#awn)"/>
  <rect x="62" y="74" width="18" height="32" fill="#e74c3c" clip-path="url(#awn)"/>
  <rect x="98" y="74" width="18" height="32" fill="#e74c3c" clip-path="url(#awn)"/>
  <rect x="134" y="74" width="18" height="32" fill="#e74c3c" clip-path="url(#awn)"/>
  <path d="M26 106 Q35 114 44 106 Q53 114 62 106 Q71 114 80 106 Q89 114 98 106 Q107 114 116 106 Q125 114 134 106 Q143 114 152 106 Q161 114 166 106" fill="none" stroke="#c0392b" stroke-width="2.5"/>
  <rect x="26" y="106" width="140" height="68" fill="#FFF8F0"/>
  <rect x="26" y="106" width="140" height="68" fill="none" stroke="#d35400" stroke-width="2"/>
  <rect x="36" y="115" width="46" height="34" rx="4" fill="#AEE4F8" stroke="#d35400" stroke-width="1.8"/>
  <line x1="59" y1="115" x2="59" y2="149" stroke="#d35400" stroke-width="1.3"/>
  <line x1="36" y1="132" x2="82" y2="132" stroke="#d35400" stroke-width="1.3"/>
  <rect x="110" y="115" width="46" height="34" rx="4" fill="#AEE4F8" stroke="#d35400" stroke-width="1.8"/>
  <line x1="133" y1="115" x2="133" y2="149" stroke="#d35400" stroke-width="1.3"/>
  <line x1="110" y1="132" x2="156" y2="132" stroke="#d35400" stroke-width="1.3"/>
  <rect x="76" y="130" width="40" height="44" rx="4" fill="#F0C080" stroke="#d35400" stroke-width="1.8"/>
  <circle cx="109" cy="152" r="3" fill="#d35400"/>
  <polygon points="18,78 174,78 160,56 32,56" fill="#c0392b"/>
  <polygon points="18,78 174,78 160,56 32,56" fill="none" stroke="#922b21" stroke-width="1.8"/>
  <rect x="130" y="38" width="16" height="20" rx="3" fill="#922b21"/>
  <rect x="60" y="60" width="72" height="18" rx="3" fill="#fff" stroke="#d35400" stroke-width="1.3"/>
  <text x="96" y="73" font-family="'Helvetica Neue', Arial, sans-serif" font-size="10" font-weight="700" fill="#EA6C1E" text-anchor="middle">SHOP</text>
  <rect x="21" y="174" width="150" height="6" rx="3" fill="#d35400" opacity="0.35"/>
</svg>
